<?xml version="1.0" ?><!DOCTYPE svg  PUBLIC '-//W3C//DTD SVG 1.1//EN'  'http://www.w3.org/Graphics/SVG/1.1/DTD/svg11.dtd'><svg height="512px" style="enable-background:new 0 0 512 512;" version="1.1" viewBox="0 0 512 512" width="512px" xml:space="preserve" xmlns="http://www.w3.org/2000/svg" xmlns:xlink="http://www.w3.org/1999/xlink"><g id="_x37_2_x2C__snowflake_x2C_christmas_x2C_holiday_x2C_winter_x2C_season"><path d="M485.381,246.512c-3.664,0-6.842,2.102-8.413,5.16h-33.329l9.029-13.52c0.424,0.059,0.853,0.098,1.291,0.098   c5.217,0,9.461-4.252,9.461-9.479s-4.244-9.479-9.461-9.479c-5.227,0-9.479,4.252-9.479,9.479c0,1.854,0.543,3.58,1.466,5.041   l-11.928,17.859h-26.556l15.189-22.76c0.428,0.061,0.861,0.102,1.305,0.102c5.227,0,9.479-4.244,9.479-9.461   c0-5.229-4.252-9.48-9.479-9.48c-5.218,0-9.463,4.252-9.463,9.48c0,1.838,0.535,3.551,1.447,5.004l-18.097,27.115h-55.396   l31.251-60.916c0.622-1.213,0.584-2.656-0.1-3.834s-1.919-1.928-3.279-1.988l-36.71-1.65l24.804-24.801l32.329,6.457   c0.43,1.574,1.255,3.018,2.438,4.191c1.785,1.785,4.16,2.768,6.688,2.768c2.521,0,4.897-0.979,6.7-2.766   c1.786-1.785,2.77-4.162,2.77-6.695s-0.983-4.91-2.78-6.707c-1.793-1.775-4.168-2.754-6.689-2.754   c-2.527,0-4.902,0.982-6.676,2.756c-0.412,0.408-0.776,0.852-1.102,1.318l-26.878-5.367l18.775-18.773l21.869,4.355   c0.368,1.721,1.209,3.359,2.538,4.701c1.785,1.783,4.163,2.766,6.694,2.766c2.532,0,4.909-0.982,6.702-2.777   c3.677-3.701,3.671-9.703,0.015-13.352c-1.786-1.818-4.172-2.82-6.717-2.82s-4.93,1.002-6.694,2.795   c-0.28,0.281-0.531,0.578-0.77,0.883l-16.835-3.354l23.628-23.625c1.115,0.449,2.314,0.688,3.551,0.688   c2.527,0,4.902-0.982,6.7-2.779c3.667-3.701,3.662-9.701-0.002-13.367c-1.786-1.799-4.165-2.789-6.698-2.789   c-2.527,0-4.906,0.986-6.701,2.779c-2.586,2.584-3.348,6.316-2.293,9.6l-23.555,23.553l-3.18-15.961   c0.337-0.258,0.666-0.531,0.972-0.836c3.668-3.701,3.662-9.701-0.001-13.363c-1.786-1.803-4.168-2.795-6.707-2.795   s-4.921,0.994-6.693,2.783c-3.675,3.674-3.681,9.674-0.002,13.385c1.285,1.285,2.879,2.148,4.614,2.535l4.194,21.053   l-18.783,18.781l-5.353-26.852c0.339-0.258,0.667-0.531,0.971-0.838c1.797-1.781,2.789-4.154,2.794-6.682   c0.006-2.535-0.982-4.922-2.77-6.709c-1.787-1.799-4.167-2.791-6.703-2.791c-2.542,0-4.922,0.996-6.678,2.781   c-1.798,1.797-2.785,4.184-2.78,6.719c0.005,2.527,0.997,4.898,2.757,6.645c1.274,1.295,2.858,2.164,4.588,2.559l6.371,31.971   l-30.25,30.246l-24.581-1.105L260,121.029v-7.219l27.104-18.086c1.457,0.914,3.173,1.451,5.016,1.451   c5.227,0,9.479-4.252,9.479-9.479s-4.252-9.479-9.479-9.479c-5.228,0-9.479,4.252-9.479,9.479c0,0.449,0.043,0.889,0.104,1.32   L260,104.193V77.635l17.853-11.924c1.459,0.922,3.181,1.463,5.029,1.463c5.227,0,9.479-4.244,9.479-9.461   c0-5.219-4.253-9.463-9.479-9.463c-5.217,0-9.461,4.244-9.461,9.463c0,0.434,0.04,0.855,0.097,1.273L260,68.014V34.699   c3.049-1.572,5.143-4.748,5.143-8.408c0-5.217-4.244-9.461-9.462-9.461c-5.217,0-9.461,4.244-9.461,9.461   c0,3.912,2.387,7.277,5.781,8.717v33.432l-14.282-9.547c0.049-0.387,0.082-0.779,0.082-1.18c0-5.219-4.245-9.463-9.462-9.463   c-5.227,0-9.479,4.244-9.479,9.463c0,5.217,4.252,9.461,9.479,9.461c1.883,0,3.636-0.561,5.111-1.512L252,78.061v26.559   l-22.819-15.225c0.1-0.553,0.16-1.117,0.16-1.697c0-5.227-4.245-9.479-9.462-9.479c-5.227,0-9.479,4.252-9.479,9.479   s4.252,9.479,9.479,9.479c1.702,0,3.296-0.459,4.677-1.25L252,114.236v6.795l-38.22,60.66l-24.98,1.123l-30.276-30.275   l6.372-31.961c1.72-0.395,3.298-1.256,4.563-2.533c3.678-3.676,3.683-9.676,0.012-13.375c-1.786-1.801-4.167-2.793-6.705-2.793   c-2.539,0-4.92,0.992-6.705,2.791c-3.672,3.701-3.667,9.701-0.002,13.365c0.317,0.32,0.66,0.605,1.012,0.873l-5.349,26.83   l-18.783-18.783l4.193-21.043c1.728-0.389,3.322-1.25,4.624-2.541c3.669-3.701,3.664-9.701-0.011-13.375   c-1.793-1.795-4.174-2.783-6.704-2.783c-2.53,0-4.911,0.988-6.703,2.781c-3.676,3.676-3.681,9.676,0.01,13.398   c0.304,0.301,0.629,0.57,0.964,0.826l-3.175,15.936l-23.547-23.547c0.301-0.934,0.461-1.916,0.459-2.924   c-0.005-2.527-0.997-4.898-2.77-6.656c-1.786-1.801-4.167-2.791-6.705-2.791s-4.919,0.99-6.694,2.779   c-3.675,3.676-3.68,9.678,0,13.389c1.785,1.785,4.162,2.768,6.694,2.768c1.246,0,2.453-0.24,3.572-0.695l23.631,23.631   l-16.84,3.357c-0.238-0.303-0.489-0.598-0.766-0.873c-1.795-1.809-4.18-2.807-6.715-2.807c-2.535,0-4.92,0.998-6.703,2.795   c-3.676,3.676-3.681,9.676,0.012,13.4c1.792,1.775,4.168,2.754,6.691,2.754c2.523,0,4.899-0.979,6.703-2.768   c1.311-1.311,2.185-2.936,2.563-4.701l21.856-4.357l18.772,18.773l-26.882,5.365c-0.325-0.467-0.689-0.912-1.102-1.324   c-1.799-1.77-4.174-2.744-6.686-2.744c-2.519,0-4.893,0.979-6.684,2.754c-1.801,1.787-2.793,4.168-2.793,6.707   s0.992,4.92,2.792,6.705c1.792,1.777,4.166,2.756,6.685,2.756c2.513,0,4.888-0.975,6.709-2.768c1.181-1.18,2.001-2.623,2.428-4.195   l32.333-6.455l24.821,24.82l-36.311,1.633c-1.36,0.061-2.596,0.811-3.28,1.988s-0.721,2.623-0.099,3.834l31.268,60.916h-55.412   l-18.083-27.117c0.912-1.453,1.448-3.164,1.448-5.002c0-5.229-4.252-9.48-9.479-9.48c-5.227,0-9.479,4.252-9.479,9.48   c0,5.217,4.252,9.461,9.479,9.461c0.449,0,0.888-0.043,1.32-0.104l15.178,22.762h-26.56l-11.926-17.857   c0.922-1.463,1.464-3.188,1.464-5.043c0-5.227-4.244-9.479-9.461-9.479c-5.217,0-9.461,4.252-9.461,9.479s4.244,9.479,9.461,9.479   c0.433,0,0.856-0.039,1.274-0.096l9.028,13.518H35.031c-1.571-3.059-4.748-5.16-8.411-5.16c-5.217,0-9.461,4.252-9.461,9.479   c0,5.217,4.244,9.461,9.461,9.461c3.912,0,7.277-2.387,8.715-5.779h33.432l-9.545,14.281c-0.388-0.049-0.78-0.082-1.181-0.082   c-5.217,0-9.461,4.244-9.461,9.461c0,5.219,4.244,9.463,9.461,9.463c5.217,0,9.461-4.244,9.461-9.463   c0-1.883-0.559-3.635-1.511-5.109l12.399-18.551h26.555l-15.222,22.801c-0.552-0.102-1.117-0.162-1.698-0.162   c-5.227,0-9.479,4.254-9.479,9.48s4.252,9.48,9.479,9.48c5.227,0,9.479-4.254,9.479-9.48c0-1.707-0.459-3.305-1.252-4.689   l18.312-27.43h54.987l-31.268,60.916c-0.622,1.211-0.584,2.656,0.099,3.834s1.919,1.926,3.28,1.988l35.879,1.611l-25.124,25.121   l-31.967-6.365c-0.391-1.717-1.244-3.291-2.507-4.553c-1.786-1.803-4.168-2.793-6.707-2.793s-4.92,0.992-6.693,2.779   c-1.785,1.785-2.768,4.162-2.768,6.695c0,2.531,0.982,4.908,2.767,6.693c1.784,1.785,4.162,2.768,6.694,2.768   s4.91-0.982,6.694-2.768c0.313-0.313,0.592-0.65,0.854-0.998l26.829,5.344l-18.786,18.783l-21.069-4.215   c-0.379-1.676-1.206-3.271-2.499-4.574c-1.786-1.803-4.168-2.795-6.706-2.795c-2.539,0-4.92,0.992-6.705,2.793   c-3.661,3.689-3.661,9.693,0.011,13.395c1.785,1.785,4.162,2.768,6.694,2.768c2.532,0,4.909-0.982,6.705-2.779   c0.308-0.309,0.58-0.641,0.836-0.98l15.934,3.188l-23.554,23.551c-0.925-0.297-1.899-0.457-2.9-0.457   c-2.538,0-4.919,0.992-6.694,2.781c-3.689,3.689-3.69,9.695,0.001,13.389c1.785,1.783,4.162,2.766,6.693,2.766   s4.909-0.982,6.682-2.756c1.801-1.787,2.793-4.168,2.792-6.707c0-1.25-0.243-2.459-0.699-3.578l23.638-23.635l3.358,16.844   c-0.317,0.246-0.626,0.508-0.914,0.799c-3.653,3.686-3.653,9.68,0.001,13.363c1.786,1.801,4.167,2.793,6.706,2.793   c2.538,0,4.919-0.992,6.705-2.793c3.654-3.684,3.654-9.678,0-13.365c-1.303-1.313-2.926-2.189-4.693-2.572l-4.361-21.869   l18.785-18.783l5.356,26.895c-0.469,0.324-0.917,0.688-1.333,1.1c-3.66,3.689-3.66,9.693,0.012,13.395   c1.793,1.793,4.174,2.781,6.703,2.781s4.909-0.988,6.703-2.781s2.781-4.174,2.781-6.703s-0.988-4.91-2.793-6.715   c-1.181-1.172-2.619-1.986-4.182-2.412l-6.444-32.359l29.991-29.988l25.412,1.143l38.22,60.66v6.781l-27.444,18.324   c-1.381-0.789-2.975-1.248-4.676-1.248c-5.227,0-9.479,4.252-9.479,9.477c0,5.219,4.252,9.463,9.479,9.463   c5.217,0,9.462-4.244,9.462-9.463c0-0.58-0.061-1.146-0.161-1.697L252,406.709v26.555l-18.553,12.4   c-1.475-0.953-3.227-1.514-5.109-1.514c-5.227,0-9.479,4.254-9.479,9.48c0,5.217,4.252,9.461,9.479,9.461   c5.217,0,9.462-4.244,9.462-9.461c0-0.406-0.034-0.805-0.084-1.199L252,442.885v33.451c-3.394,1.438-5.781,4.803-5.781,8.715   c0,5.219,4.244,9.463,9.461,9.463c5.218,0,9.462-4.244,9.462-9.463c0-3.66-2.094-6.834-5.143-8.406v-33.334l13.52,9.027   c-0.059,0.424-0.099,0.854-0.099,1.293c0,5.217,4.244,9.461,9.461,9.461c5.227,0,9.479-4.244,9.479-9.461   c0-5.227-4.253-9.48-9.479-9.48c-1.849,0-3.568,0.543-5.026,1.465L260,433.689v-26.553l22.744,15.186   c-0.061,0.434-0.104,0.873-0.104,1.322c0,5.219,4.252,9.463,9.479,9.463c5.227,0,9.479-4.244,9.479-9.463   c0-5.225-4.252-9.477-9.479-9.477c-1.843,0-3.558,0.535-5.015,1.449L260,397.518v-7.205l38.202-60.662l24.998-1.123l29.977,29.977   l-6.441,32.348c-1.572,0.428-3.015,1.248-4.194,2.428c-1.794,1.793-2.782,4.174-2.782,6.703s0.988,4.91,2.77,6.691   c1.786,1.801,4.167,2.793,6.706,2.793s4.92-0.992,6.705-2.793c3.661-3.689,3.661-9.693-0.011-13.395   c-0.405-0.404-0.844-0.762-1.305-1.082l5.355-26.891l18.784,18.783l-4.357,21.859c-1.765,0.379-3.392,1.256-4.711,2.574   c-3.655,3.686-3.655,9.68,0.012,13.377c1.794,1.793,4.173,2.779,6.7,2.779c2.533,0,4.911-0.992,6.688-2.781   c3.688-3.689,3.688-9.695,0.01-13.377c-0.283-0.285-0.585-0.543-0.896-0.785l3.358-16.844l23.63,23.631   c-0.455,1.119-0.695,2.326-0.695,3.572c0,2.531,0.983,4.908,2.781,6.707c1.792,1.775,4.167,2.754,6.688,2.754   c2.526,0,4.901-0.982,6.689-2.768c3.688-3.691,3.688-9.697,0.009-13.377c-1.786-1.799-4.165-2.791-6.698-2.791   c-1.001,0-1.977,0.162-2.904,0.459l-23.551-23.551l15.935-3.184c0.257,0.342,0.53,0.674,0.84,0.986   c1.784,1.785,4.162,2.768,6.694,2.768s4.91-0.982,6.692-2.766c1.795-1.793,2.782-4.174,2.782-6.705c0-2.529-0.987-4.91-2.768-6.689   c-1.786-1.801-4.168-2.795-6.707-2.795s-4.921,0.994-6.705,2.795c-1.295,1.305-2.121,2.9-2.499,4.58l-21.063,4.211l-18.784-18.783   l26.823-5.346c0.264,0.35,0.545,0.691,0.863,1.01c1.793,1.777,4.169,2.756,6.692,2.756s4.9-0.979,6.691-2.756   c1.8-1.787,2.791-4.168,2.791-6.707c0-2.537-0.992-4.918-2.778-6.691c-1.793-1.795-4.174-2.781-6.704-2.781   s-4.911,0.986-6.704,2.781c-1.301,1.301-2.133,2.891-2.517,4.563l-31.96,6.369l-25.104-25.104l36.294-1.631   c1.36-0.063,2.596-0.811,3.279-1.988s0.722-2.623,0.1-3.834l-31.251-60.916h54.972l18.325,27.428   c-0.792,1.385-1.251,2.984-1.251,4.691c0,5.227,4.245,9.48,9.463,9.48c5.227,0,9.479-4.254,9.479-9.48s-4.252-9.48-9.479-9.48   c-0.575,0-1.136,0.061-1.683,0.16l-15.233-22.799h26.551l12.401,18.553c-0.953,1.475-1.513,3.227-1.513,5.107   c0,5.219,4.252,9.463,9.479,9.463c5.217,0,9.461-4.244,9.461-9.463c0-5.217-4.244-9.461-9.461-9.461   c-0.406,0-0.804,0.035-1.197,0.084l-9.547-14.283h33.449c1.438,3.393,4.804,5.779,8.717,5.779c5.217,0,9.461-4.244,9.461-9.461   C494.842,250.764,490.598,246.512,485.381,246.512z M148.246,192.645l37.392-1.68l60.707,60.707h-67.801L148.246,192.645z    M185.207,320.357l-36.961-1.66l30.297-59.025H245.9L185.207,320.357z M252,375.305l-32.566-51.689   c-0.698-1.109-1.896-1.805-3.205-1.863l-20.196-0.908L252,264.883V375.305z M252,246.016l-55.536-55.537l19.765-0.889   c1.309-0.059,2.506-0.754,3.205-1.863L252,136.037V246.016z M260,136.043l32.548,51.684c0.698,1.107,1.896,1.805,3.205,1.863   l19.366,0.871L260,245.572V136.043z M295.753,321.752c-1.31,0.059-2.507,0.756-3.205,1.863L260,375.299V265.328l55.535,55.535   L295.753,321.752z M363.738,318.697l-37.376,1.68l-60.705-60.705h67.8L363.738,318.697z M333.457,251.672h-68.242l60.73-60.725   l37.793,1.699L333.457,251.672z"/></g><g id="Layer_1"/></svg>