<?xml version="1.0" ?><!DOCTYPE svg  PUBLIC '-//W3C//DTD SVG 1.1//EN'  'http://www.w3.org/Graphics/SVG/1.1/DTD/svg11.dtd'><svg height="64px" id="ICONS" style="enable-background:new 0 0 64 64;" version="1.1" viewBox="0 0 64 64" width="64px" xml:space="preserve" xmlns="http://www.w3.org/2000/svg" xmlns:xlink="http://www.w3.org/1999/xlink"><g><circle cx="12" cy="38" r="2" style="fill:none;stroke:#FF6D00;stroke-width:2;stroke-linecap:round;stroke-linejoin:round;stroke-miterlimit:10;"/><circle cx="49" cy="11" r="2" style="fill:none;stroke:#FF6D00;stroke-width:2;stroke-linecap:round;stroke-linejoin:round;stroke-miterlimit:10;"/><circle cx="50" cy="49" r="2" style="fill:none;stroke:#FF6D00;stroke-width:2;stroke-linecap:round;stroke-linejoin:round;stroke-miterlimit:10;"/><circle cx="29" cy="21" r="1" style="fill:#FF6D00;"/><circle cx="30" cy="13" r="1" style="fill:#FF6D00;"/><circle cx="24" cy="38" r="1" style="fill:#FF6D00;"/><circle cx="37" cy="47" r="1" style="fill:#FF6D00;"/><circle cx="34" cy="55" r="1" style="fill:#FF6D00;"/><circle cx="19" cy="32" r="1" style="fill:#FF6D00;"/><circle cx="7" cy="44" r="1" style="fill:#FF6D00;"/><circle cx="57" cy="43" r="1" style="fill:#FF6D00;"/><circle cx="44" cy="54" r="1" style="fill:#FF6D00;"/><circle cx="53" cy="19" r="1" style="fill:#FF6D00;"/><circle cx="38" cy="10" r="1" style="fill:#FF6D00;"/><g><path d="    M12.757,27.251c0.139,0.231,0.314,0.446,0.515,0.646c1.42,1.42,3.724,1.42,5.143,0.001c1.132-1.132,1.363-2.822,0.694-4.181    c1.188,0.282,2.493-0.036,3.42-0.962c1.419-1.419,1.419-3.723,0-5.142c-0.072-0.072-0.144-0.135-0.217-0.197    c0.515-1.306,0.247-2.858-0.812-3.918c-1.06-1.06-2.612-1.326-3.918-0.813c-0.063-0.072-0.125-0.144-0.197-0.216    c-1.419-1.419-3.723-1.419-5.142,0c-0.926,0.926-1.244,2.231-0.963,3.42c-1.357-0.669-3.049-0.438-4.181,0.694    c-1.419,1.419-1.419,3.723,0.001,5.143c0.2,0.2,0.416,0.375,0.647,0.515c-0.231,0.139-0.447,0.313-0.648,0.514    c-1.419,1.419-1.419,3.724,0,5.143c1.42,1.419,3.725,1.419,5.144,0C12.443,27.698,12.618,27.482,12.757,27.251z" style="fill:none;stroke:#FF6D00;stroke-width:2;stroke-linecap:round;stroke-linejoin:round;stroke-miterlimit:10;"/><line style="fill:none;stroke:#FF6D00;stroke-width:2;stroke-linecap:round;stroke-linejoin:round;stroke-miterlimit:10;" x1="12.05" x2="26.899" y1="22.949" y2="8.1"/></g><g><g><path d="     M40.916,14.331c0,0,1.321,5.819,6.457,5.752c0,0-4.005,3.5-0.996,6.732c2.739,2.941,5.869-0.8,5.869-0.8s0.262,5.146,6.504,4.366     c0,0-6.382,1.24-5.016,7.042c0,0-5.956-3.586-5.956,3.659c0,0-5.302-2.007-6.862,4.458c-1.561-6.465-6.194-4.458-6.194-4.458     c0-7.245-5.956-3.659-5.956-3.659c1.366-5.802-5.016-7.042-5.016-7.042c6.242,0.78,6.504-4.366,6.504-4.366s3.13,3.741,5.869,0.8     c3.009-3.232-0.996-6.732-0.996-6.732C40.263,20.15,40.916,14.331,40.916,14.331z" style="fill:none;stroke:#FF6D00;stroke-width:2;stroke-linecap:round;stroke-linejoin:round;stroke-miterlimit:10;"/><polyline points="     44.371,29.854 40.916,31.273 37.46,29.854    " style="fill:none;stroke:#FF6D00;stroke-width:2;stroke-linecap:round;stroke-linejoin:round;stroke-miterlimit:10;"/><polyline points="     45.485,35.287 41.25,38.103 37.015,35.287    " style="fill:none;stroke:#FF6D00;stroke-width:2;stroke-linecap:round;stroke-linejoin:round;stroke-miterlimit:10;"/></g><line style="fill:none;stroke:#FF6D00;stroke-width:2;stroke-linecap:round;stroke-linejoin:round;stroke-miterlimit:10;" x1="41" x2="41" y1="21" y2="50"/></g><g><path d="    M33.5,49c0,0-20,15-20.001,0C13.5,34,33.5,49,33.5,49z" style="fill:none;stroke:#FF6D00;stroke-width:2;stroke-linecap:round;stroke-linejoin:round;stroke-miterlimit:10;"/><line style="fill:none;stroke:#FF6D00;stroke-width:2;stroke-linecap:round;stroke-linejoin:round;stroke-miterlimit:10;" x1="25" x2="8" y1="49" y2="49"/></g></g></svg>